#!OML:ASF H:\MichaelJackson\Top Level 1\Subject 1\Session 1\male.ASF
:FULLY-SPECIFIED
:DEGREES
1792
root -1.54038 16.9208 25.2505 -344.284 43.7155 3.15686
lowerback 6.81802 -0.405054 -4.38487
upperback 2.37314 -0.797808 0.0296728
thorax -1.30848 -0.397131 2.55456
lowerneck -6.35391 -5.36735 -1.47688
upperneck 7.37689 -7.29048 2.9891
head 3.70978 -3.5188 0.858893
rclavicle -1.23619e-015 -1.1281e-014
rhumerus -38.6294 19.6695 -95.5613
rradius 82.4046
rwrist -15.0267
rhand -18.6434 -34.2909
rfingers 7.12502
rthumb 7.64937 -64.1326
lclavicle -1.23619e-015 -1.1281e-014
lhumerus -52.7285 -12.1221 96.9904
lradius 58.4589
lwrist 17.351
lhand -21.4999 21.6071
lfingers 7.12502
lthumb 4.89165 51.5307
rfemur -62.133 -12.018 21.8572
rtibia 86.5822
rfoot 14.23 9.2911
rtoes 27.9541
lfemur -31.0222 1.70498 -24.9509
ltibia 38.3707
lfoot -17.1334 -7.89282
ltoes 37.4875
1793
root -1.50109 16.9348 25.2918 -344.191 43.9967 3.26503
lowerback 6.8346 -0.452699 -4.37213
upperback 2.3595 -0.861611 0.00899728
thorax -1.32746 -0.428123 2.53122
lowerneck -6.45964 -5.40831 -1.4241
upperneck 7.61762 -7.35224 2.94553
head 3.81229 -3.5454 0.82612
rclavicle -2.18415e-014 1.04362e-015
rhumerus -38.4781 19.7927 -95.3927
rradius 84.1342
rwrist -15.7072
rhand -18.3834 -34.3895
rfingers 7.12502
rthumb 7.9003 -64.2219
lclavicle -2.18415e-014 1.04362e-015
lhumerus -53.6076 -12.1548 96.8566
lradius 58.3513
lwrist 15.3677
lhand -19.1308 19.6133
lfingers 7.12502
lthumb 7.17891 49.4716
rfemur -63.3308 -11.9272 22.1527
rtibia 86.2219
rfoot 13.5335 8.85854
rtoes 25.753
lfemur -30.6824 1.27662 -24.9644
ltibia 38.1248
lfoot -17.2613 -7.55396
ltoes 37.0989
1794
root -1.46002 16.9456 25.3291 -344.04 44.0851 3.1767
lowerback 6.67361 -0.482444 -4.27474
upperback 2.28701 -0.889387 0.0491926
thorax -1.31192 -0.441702 2.51845
lowerneck -6.5642 -5.42 -1.46385
upperneck 7.80437 -7.36191 2.87579
head 3.89765 -3.55099 0.804213
rclavicle 6.11014e-014 3.91357e-015
rhumerus -38.2978 20.0034 -95.2058
rradius 85.8814
rwrist -16.5429
rhand -18.1239 -34.5098
rfingers 7.12502
rthumb 8.15072 -64.3326
lclavicle 6.11014e-014 3.91357e-015
lhumerus -54.6727 -12.3989 97.237
lradius 58.8945
lwrist 15.4562
lhand -19.597 20.9617
lfingers 7.12502
lthumb 6.72886 50.8348
rfemur -64.6535 -11.5817 22.5357
rtibia 85.5495
rfoot 13.3114 7.84649
rtoes 26.0925
lfemur -30.5804 1.01541 -24.8843
ltibia 37.9022
lfoot -17.4447 -7.14942
ltoes 36.2708
1795
root -1.42053 16.9516 25.3655 -343.727 44.0848 3.12835
lowerback 6.38574 -0.410005 -4.16714
upperback 2.16438 -0.778473 0.0141464
thorax -1.2891 -0.385681 2.41084
lowerneck -6.60499 -5.48149 -1.38929
upperneck 7.95055 -7.44901 2.80934
head 3.95283 -3.59229 0.761272
rclavicle 6.34651e-014 -2.00773e-014
rhumerus -38.1825 20.0019 -95.0151
rradius 87.6928
rwrist -17.3874
rhand -18.1864 -34.3871
rfingers 7.12502
rthumb 8.09041 -64.2122
lclavicle 6.34651e-014 -2.00773e-014
lhumerus -55.5971 -12.585 97.1782
lradius 59.1266
lwrist 14.4169
lhand -17.4049 20.3219
lfingers 7.12502
lthumb 8.84465 50.1165
rfemur -66.0106 -11.1366 22.8804
rtibia 84.6149
rfoot 13.2063 5.93572
rtoes 29.2809
lfemur -30.7132 0.856709 -24.8578
ltibia 37.8283
lfoot -17.5794 -6.93091
ltoes 36.0638
1796
root -1.3834 16.9645 25.4088 -343.582 44.2579 3.11419
lowerback 6.31154 -0.448495 -4.14115
upperback 2.08474 -0.827105 0.034182
thorax -1.32664 -0.408377 2.42006
lowerneck -6.63892 -5.4804 -1.38137
upperneck 8.06078 -7.44528 2.74974
head 3.99528 -3.59111 0.738054
rclavicle -7.9927e-014 -1.59276e-014
rhumerus -38.034 20.1337 -94.9174
rradius 89.4381
rwrist -18.1371
rhand -18.2192 -34.22
rfingers 7.12502
rthumb 8.05882 -64.0464
lclavicle -7.9927e-014 -1.59276e-014
lhumerus -56.7833 -12.8828 97.5821
lradius 60.1097
lwrist 15.5001
lhand -17.8636 22.9211
lfingers 7.12502
lthumb 8.40201 52.734
rfemur -66.937 -10.8071 23.1208
rtibia 83.3799
rfoot 13.5742 4.82436
rtoes 30.1469
lfemur -30.5975 0.813282 -24.8162
ltibia 37.7066
lfoot -17.6926 -7.01457
ltoes 35.9384
1797
root -1.34337 16.9407 25.4587 -343.591 44.3567 3.23582
lowerback 6.45172 -0.387185 -4.26607
upperback 2.08658 -0.759879 0.0203678
thorax -1.40584 -0.373074 2.47292
lowerneck -6.66215 -5.5317 -1.30767
upperneck 8.10523 -7.51357 2.65474
head 4.00889 -3.62601 0.688604
rclavicle -3.29532e-014 3.16813e-016
rhumerus -37.8615 20.1314 -94.7054
rradius 91.2086
rwrist -18.7917
rhand -18.6128 -33.9938
rfingers 7.12502
rthumb 7.67892 -63.8344
lclavicle -3.29532e-014 3.16813e-016
lhumerus -57.9453 -13.3046 97.8292
lradius 61.0826
lwrist 16.3581
lhand -17.2535 24.045
lfingers 7.12502
lthumb 8.99075 53.8334
rfemur -67.534 -10.4962 23.2493
rtibia 82.0264
rfoot 13.8196 4.08075
rtoes 29.6327
lfemur -30.2385 1.04804 -24.9198
ltibia 37.6427
lfoot -17.8217 -7.42027
ltoes 36.2917
1798
root -1.30641 16.9554 25.5058 -343.557 44.579 3.45381
lowerback 6.67411 -0.414149 -4.43062
upperback 2.08371 -0.816449 0.026986
thorax -1.52548 -0.398312 2.57934
lowerneck -6.67651 -5.53928 -1.34654
upperneck 8.14551 -7.51746 2.62148
head 4.02639 -3.63002 0.683113
rclavicle 5.40617e-014 -9.55409e-015
rhumerus -37.6798 20.2868 -94.5881
rradius 92.9315
rwrist -19.2611
rhand -18.8497 -33.8135
rfingers 7.12502
rthumb 7.45024 -63.6623
lclavicle 5.40617e-014 -9.55409e-015
lhumerus -59.0346 -13.4591 98.1243
lradius 62.1045
lwrist 17.6345
lhand -16.9903 24.9505
lfingers 7.12502
lthumb 9.24469 54.7278
rfemur -67.8188 -10.3016 23.1991
rtibia 80.281
rfoot 14.4726 3.59579
rtoes 29.9716
lfemur -29.7529 1.22807 -25.0632
ltibia 37.4141
lfoot -17.9723 -7.85642
ltoes 36.2075
1799
root -1.26938 16.9604 25.5565 -343.392 44.7274 3.71272
lowerback 6.73306 -0.365307 -4.63142
upperback 2.06408 -0.769065 -0.0206536
thorax -1.57974 -0.372919 2.64021
lowerneck -6.69035 -5.60677 -1.35846
upperneck 8.19072 -7.61139 2.66087
head 4.05008 -3.67414 0.691488
rclavicle 1.03088e-013 -3.14887e-014
rhumerus -37.4546 20.1885 -94.3638
rradius 94.6297
rwrist -19.5482
rhand -19.0847 -33.376
rfingers 7.12502
rthumb 7.22336 -63.2328
lclavicle 1.03088e-013 -3.14887e-014
lhumerus -60.2452 -13.8228 98.417
lradius 63.3676
lwrist 19.0576
lhand -16.8672 25.7158
lfingers 7.12502
lthumb 9.36345 55.4878
rfemur -68.0796 -10.0804 23.1323
rtibia 78.3542
rfoot 15.044 3.62604
rtoes 29.0613
lfemur -29.3711 1.4777 -25.2499
ltibia 37.1735
lfoot -18.0624 -8.31957
ltoes 36.5208
